<?xml version="1.0" encoding="UTF-8" standalone="no"?>
<!-- Created with Inkscape (http://www.inkscape.org/) -->

<svg
   width="1518.2578"
   height="301.55185"
   viewBox="0 0 401.7057 79.785596"
   version="1.1"
   id="svg91258"
   xmlns="http://www.w3.org/2000/svg"
   xmlns:svg="http://www.w3.org/2000/svg">
  <defs
     id="defs91255" />
  <g
     id="layer1"
     transform="translate(-20.428094,-73.111781)">
    <path
       id="path68524-9"
       style="color:#000000;fill:#666666;stroke-width:1;stroke-linecap:round;stroke-linejoin:round;-inkscape-stroke:none"
       d="m 87.676872,85.474091 c 0.132316,0.131472 0.262316,0.265081 0.392743,0.398426 a 3.5362601,3.5362601 0 0 0 -0.288356,-0.328663 3.5362601,3.5362601 0 0 0 -0.104387,-0.06976 z M 80.1533,88.170569 73.739223,94.58568 c -3.873646,-2.82171 -8.567489,-4.371827 -13.41882,-4.371827 -12.544561,1.1e-5 -22.789302,10.246797 -22.789307,22.791367 a 3.5362601,3.5362601 0 0 0 3.535185,3.53467 h 34.578767 c -1.591323,7.00271 -7.818987,12.18169 -15.324645,12.18169 -4.169842,0 -8.164497,-1.65482 -11.113017,-4.60334 a 3.5362601,3.5362601 0 0 0 -0.373104,-0.31884 3.5362601,3.5362601 0 0 0 -0.120923,-0.0858 3.5362601,3.5362601 0 0 0 -0.327628,-0.20051 3.5362601,3.5362601 0 0 0 -0.106455,-0.0589 3.5362601,3.5362601 0 0 0 -0.4439,-0.18397 3.5362601,3.5362601 0 0 0 -0.129709,-0.0377 3.5362601,3.5362601 0 0 0 -0.356566,-0.0853 3.5362601,3.5362601 0 0 0 -0.159163,-0.0274 3.5362601,3.5362601 0 0 0 -0.439766,-0.0341 3.5362601,3.5362601 0 0 0 -0.09302,0 3.5362601,3.5362601 0 0 0 -0.43098,0.0341 3.5362601,3.5362601 0 0 0 -0.166915,0.0284 3.5362601,3.5362601 0 0 0 -0.343132,0.0822 3.5362601,3.5362601 0 0 0 -0.142627,0.0413 3.5362601,3.5362601 0 0 0 -0.43253,0.1788 3.5362601,3.5362601 0 0 0 -0.134877,0.0749 3.5362601,3.5362601 0 0 0 -0.292489,0.17932 3.5362601,3.5362601 0 0 0 -0.14366,0.1018 3.5362601,3.5362601 0 0 0 -0.317294,0.2713 3.5362601,3.5362601 0 0 0 -0.04754,0.0403 3.5362601,3.5362601 0 0 0 -0.01188,0.0139 l -8.706962,8.70697 c 1.475457,1.84698 3.153209,3.52426 5.000213,4.99969 l 6.41563,-6.41408 c 3.873553,2.821 8.567161,4.36925 13.418302,4.36924 12.54457,0 22.790867,-10.24422 22.790856,-22.78879 a 3.5362601,3.5362601 0 0 0 -0.0052,-0.19172 3.5362601,3.5362601 0 0 0 -0.0093,-0.11368 3.5362601,3.5362601 0 0 0 -0.0078,-0.091 3.5362601,3.5362601 0 0 0 -0.02429,-0.17622 3.5362601,3.5362601 0 0 0 -0.0011,-0.006 3.5362601,3.5362601 0 0 0 -0.01757,-0.0915 3.5362601,3.5362601 0 0 0 -0.02119,-0.10748 3.5362601,3.5362601 0 0 0 -0.0186,-0.0744 3.5362601,3.5362601 0 0 0 -0.02842,-0.11058 3.5362601,3.5362601 0 0 0 -0.03307,-0.10646 3.5362601,3.5362601 0 0 0 -0.02326,-0.0739 3.5362601,3.5362601 0 0 0 -0.03617,-0.0992 3.5362601,3.5362601 0 0 0 -0.03462,-0.0904 3.5362601,3.5362601 0 0 0 -0.03772,-0.0879 3.5362601,3.5362601 0 0 0 -0.03928,-0.0868 3.5362601,3.5362601 0 0 0 -0.05012,-0.10181 3.5362601,3.5362601 0 0 0 -0.03566,-0.0682 3.5362601,3.5362601 0 0 0 -0.05271,-0.0941 3.5362601,3.5362601 0 0 0 -0.04857,-0.0822 3.5362601,3.5362601 0 0 0 -0.05168,-0.0811 3.5362601,3.5362601 0 0 0 -0.05374,-0.0801 3.5362601,3.5362601 0 0 0 -0.06046,-0.0842 3.5362601,3.5362601 0 0 0 -0.05064,-0.0677 3.5362601,3.5362601 0 0 0 -0.07131,-0.0889 3.5362601,3.5362601 0 0 0 -0.05478,-0.0646 3.5362601,3.5362601 0 0 0 -0.07131,-0.0791 3.5362601,3.5362601 0 0 0 -0.06098,-0.0646 3.5362601,3.5362601 0 0 0 -0.07441,-0.0744 3.5362601,3.5362601 0 0 0 -0.06459,-0.061 3.5362601,3.5362601 0 0 0 -0.077,-0.0692 3.5362601,3.5362601 0 0 0 -0.07545,-0.0636 3.5362601,3.5362601 0 0 0 -0.07286,-0.0584 3.5362601,3.5362601 0 0 0 -0.0801,-0.0605 3.5362601,3.5362601 0 0 0 -0.08062,-0.0579 3.5362601,3.5362601 0 0 0 -0.0708,-0.0475 3.5362601,3.5362601 0 0 0 -0.09353,-0.06 3.5362601,3.5362601 0 0 0 -0.07338,-0.0429 3.5362601,3.5362601 0 0 0 -0.09819,-0.0553 3.5362601,3.5362601 0 0 0 -0.06821,-0.0357 3.5362601,3.5362601 0 0 0 -0.101803,-0.0501 3.5362601,3.5362601 0 0 0 -0.08682,-0.0393 3.5362601,3.5362601 0 0 0 -0.08785,-0.0377 3.5362601,3.5362601 0 0 0 -0.09043,-0.0346 3.5362601,3.5362601 0 0 0 -0.09922,-0.0362 3.5362601,3.5362601 0 0 0 -0.0739,-0.0233 3.5362601,3.5362601 0 0 0 -0.106453,-0.0331 3.5362601,3.5362601 0 0 0 -0.0863,-0.0222 3.5362601,3.5362601 0 0 0 -0.108006,-0.0269 3.5362601,3.5362601 0 0 0 -0.05839,-0.0114 3.5362601,3.5362601 0 0 0 -0.136943,-0.0263 3.5362601,3.5362601 0 0 0 -0.176215,-0.0243 3.5362601,3.5362601 0 0 0 -0.0057,-5.3e-4 3.5362601,3.5362601 0 0 0 -0.08526,-0.007 3.5362601,3.5362601 0 0 0 -0.113689,-0.009 3.5362601,3.5362601 0 0 0 -0.191203,-0.005 H 44.998339 c 1.591853,-7.00142 7.817319,-12.179606 15.322064,-12.179606 4.16983,0 8.166563,1.65481 11.115082,4.603326 a 3.5362601,3.5362601 0 0 0 0.06408,0.0548 3.5362601,3.5362601 0 0 0 0.306959,0.26148 3.5362601,3.5362601 0 0 0 0.155546,0.10801 3.5362601,3.5362601 0 0 0 0.273367,0.16743 3.5362601,3.5362601 0 0 0 0.171567,0.0899 3.5362601,3.5362601 0 0 0 0.322976,0.13384 3.5362601,3.5362601 0 0 0 0.141079,0.0537 3.5362601,3.5362601 0 0 0 0.467669,0.11214 3.5362601,3.5362601 0 0 0 0.162782,0.0196 3.5362601,3.5362601 0 0 0 0.342099,0.0269 3.5362601,3.5362601 0 0 0 0.183967,0 3.5362601,3.5362601 0 0 0 0.346231,-0.0274 3.5362601,3.5362601 0 0 0 0.155546,-0.0186 3.5362601,3.5362601 0 0 0 0.476459,-0.1142 3.5362601,3.5362601 0 0 0 0.111104,-0.0419 3.5362601,3.5362601 0 0 0 0.353984,-0.14676 3.5362601,3.5362601 0 0 0 0.15658,-0.0822 3.5362601,3.5362601 0 0 0 0.298688,-0.18293 3.5362601,3.5362601 0 0 0 0.127124,-0.0879 3.5362601,3.5362601 0 0 0 0.382405,-0.32608 L 85.155063,93.1723 C 83.679137,91.32455 82.001049,89.646459 80.1533,88.170537 Z M 32.798568,140.36945 a 3.5362601,3.5362601 0 0 0 0.06305,0.0946 3.5362601,3.5362601 0 0 0 0.09405,0.0631 c -0.0526,-0.0523 -0.104791,-0.10501 -0.157096,-0.15761 z" />
    <path
       style="color:#000000;fill:#19afd0;stroke-width:7.07252;stroke-linecap:round;stroke-linejoin:round;-inkscape-stroke:none"
       d="m 67.393493,113.00454 a 7.0725121,7.0725121 0 0 1 -7.07251,7.07251 7.0725121,7.0725121 0 0 1 -7.07251,-7.07251 7.0725121,7.0725121 0 0 1 7.07251,-7.07251 7.0725121,7.0725121 0 0 1 7.07251,7.07251 z"
       id="path955-4" />
    <path
       style="color:#000000;fill:#19afd0;stroke-linecap:round;stroke-linejoin:round;-inkscape-stroke:none"
       d="m 60.320413,74.171004 c -21.405761,0 -38.833983,17.42822 -38.833986,38.833976 -10e-7,21.40576 17.428222,38.83398 38.833986,38.83398 4.13897,1e-5 8.25156,-0.66263 12.18164,-1.96093 a 3.5362599,3.5362599 0 0 0 2.24805,-4.4668 3.5362599,3.5362599 0 0 0 -4.4668,-2.24805 c -3.21436,1.06187 -6.57768,1.60352 -9.96289,1.60352 -17.583495,-10e-6 -31.761721,-14.17823 -31.76172,-31.76172 2e-6,-17.583486 14.178227,-31.761706 31.76172,-31.761716 17.58349,0 31.76172,14.17823 31.76172,31.761716 0,8.42514 -3.34527,16.50151 -9.30274,22.45898 a 3.5362599,3.5362599 0 0 0 0,5 l 10.33985,10.33985 a 3.5362599,3.5362599 0 0 0 5,0 3.5362599,3.5362599 0 0 0 0,-5.00196 l -8.08594,-8.08593 c 5.77067,-6.94361 9.12305,-15.60875 9.12305,-24.71094 -10e-6,-21.405756 -17.43018,-38.833976 -38.83594,-38.833976 z"
       id="path54501-4" />
    <path
       d="M 111.87009,128.75883 V 95.535184 h 9.01645 v 32.880636 q 0,7.79139 3.03815,11.71158 3.03815,3.87119 9.11445,3.87119 7.30137,0 11.51558,-4.65523 4.26321,-4.65523 4.26321,-12.69163 V 95.535184 h 9.01645 v 54.882726 h -9.01645 v -8.42842 q -3.28316,4.99825 -7.64438,7.44837 -4.31222,2.40112 -10.0455,2.40112 -9.45747,0 -14.35772,-5.88029 -4.90024,-5.88029 -4.90024,-17.19986 z m 22.68813,-34.546716 z"
       id="path84260"
       style="font-size:100.357px;line-height:125%;letter-spacing:0px;word-spacing:0px;fill:#666666;stroke-width:2.50892px" />
    <path
       d="m 211.39405,97.152264 v 8.526416 q -3.82219,-1.96009 -7.9384,-2.94014 -4.1162,-0.98005 -8.52642,-0.98005 -6.71334,0 -10.0945,2.0581 -3.33217,2.0581 -3.33217,6.17431 0,3.13615 2.40112,4.94924 2.40112,1.76409 9.65348,3.38117 l 3.08715,0.68604 q 9.60448,2.0581 13.62268,5.83129 4.06721,3.72418 4.06721,10.43752 0,7.64438 -6.07631,12.1036 -6.0273,4.45922 -16.61182,4.45922 -4.41022,0 -9.21246,-0.88204 -4.75324,-0.83304 -10.0455,-2.54813 v -9.31046 q 4.99824,2.59713 9.84949,3.92019 4.85124,1.27407 9.60448,1.27407 6.37031,0 9.80048,-2.15611 3.43017,-2.20511 3.43017,-6.17431 0,-3.67518 -2.49912,-5.63528 -2.45012,-1.9601 -10.82954,-3.77319 l -3.13616,-0.73503 q -8.37941,-1.76409 -12.1036,-5.39027 -3.72418,-3.67518 -3.72418,-10.0455 0,-7.74239 5.48827,-11.956596 5.48827,-4.21421 15.58278,-4.21421 4.99824,0 9.40846,0.73504 4.41022,0.73504 8.13441,2.20511 z"
       id="path84262"
       style="font-size:100.357px;line-height:125%;letter-spacing:0px;word-spacing:0px;fill:#666666;stroke-width:2.50892px" />
    <path
       d="m 249.95897,101.85649 q -7.25236,0 -11.46657,5.68429 -4.21421,5.63528 -4.21421,15.48477 0,9.84949 4.16521,15.53377 4.21421,5.63528 11.51557,5.63528 7.20336,0 11.41757,-5.68428 4.21421,-5.68428 4.21421,-15.48477 0,-9.75149 -4.21421,-15.43577 -4.21421,-5.73329 -11.41757,-5.73329 z m 0,-7.644376 q 11.76059,0 18.47392,7.644376 6.71334,7.64438 6.71334,21.16906 0,13.47567 -6.71334,21.16905 -6.71333,7.64438 -18.47392,7.64438 -11.80959,0 -18.52292,-7.64438 -6.66433,-7.69338 -6.66433,-21.16905 0,-13.52468 6.66433,-21.16906 6.71333,-7.644376 18.52292,-7.644376 z"
       id="path84264"
       style="font-size:100.357px;line-height:125%;letter-spacing:0px;word-spacing:0px;fill:#666666;stroke-width:2.50892px" />
    <path
       d="m 335.71324,117.29226 v 33.12565 h -9.01645 v -32.83163 q 0,-7.79139 -3.03815,-11.66258 -3.03815,-3.8712 -9.11445,-3.8712 -7.30137,0 -11.51558,4.65523 -4.21421,4.65524 -4.21421,12.69164 v 31.01854 h -9.06545 V 95.535184 h 9.06545 v 8.526416 q 3.23416,-4.949236 7.59538,-7.399366 4.41022,-2.45012 10.14351,-2.45012 9.45747,0 14.30871,5.880286 4.85124,5.8313 4.85124,17.19986 z"
       id="path84266"
       style="font-size:100.357px;line-height:125%;letter-spacing:0px;word-spacing:0px;fill:#666666;stroke-width:2.50892px" />
    <path
       d="m 353.69715,95.535184 h 9.01645 v 54.882726 h -9.01645 z m 0,-21.36507 h 9.01645 v 11.41757 h -9.01645 z"
       id="path84268"
       style="font-size:100.357px;line-height:125%;letter-spacing:0px;word-spacing:0px;fill:#666666;stroke-width:2.50892px" />
    <path
       d="m 421.07548,97.642284 v 8.428416 q -3.82219,-2.1071 -7.69338,-3.13615 -3.82219,-1.07806 -7.74238,-1.07806 -8.77144,0 -13.62268,5.58628 -4.85125,5.53728 -4.85125,15.58278 0,10.0455 4.85125,15.63178 4.85124,5.53727 13.62268,5.53727 3.92019,0 7.74238,-1.02905 3.87119,-1.07805 7.69338,-3.18516 v 8.33042 q -3.77318,1.76409 -7.84039,2.64613 -4.0182,0.88204 -8.57542,0.88204 -12.39762,0 -19.69899,-7.79138 -7.30136,-7.79139 -7.30136,-21.02205 0,-13.42667 7.35037,-21.12005 7.39937,-7.693386 20.23801,-7.693386 4.1652,0 8.1344,0.88205 3.9692,0.83304 7.69338,2.54812 z"
       id="path84270"
       style="font-size:100.357px;line-height:125%;letter-spacing:0px;word-spacing:0px;fill:#666666;stroke-width:2.50892px" />
  </g>
</svg>
