<?xml version="1.0" encoding="UTF-8" standalone="no"?>
<svg
   id="Layer_1"
   data-name="Layer 1"
   viewBox="0 0 549.61449 150.09664"
   version="1.1"
   sodipodi:docname="Qusonic Final.svg"
   width="549.6145"
   height="150.09665"
   inkscape:export-filename="/home/scienty/Documents/qusonic/logo/QT100.png"
   inkscape:export-xdpi="63.928444"
   inkscape:export-ydpi="63.928444"
   xmlns:inkscape="http://www.inkscape.org/namespaces/inkscape"
   xmlns:sodipodi="http://sodipodi.sourceforge.net/DTD/sodipodi-0.dtd"
   xmlns:xlink="http://www.w3.org/1999/xlink"
   xmlns="http://www.w3.org/2000/svg"
   xmlns:svg="http://www.w3.org/2000/svg">
  <sodipodi:namedview
     id="namedview113"
     pagecolor="#ffffff"
     bordercolor="#666666"
     borderopacity="1.0"
     inkscape:pageshadow="2"
     inkscape:pageopacity="0.0"
     inkscape:pagecheckerboard="0"
     showgrid="false"
     fit-margin-top="0.8"
     fit-margin-left="0.8"
     fit-margin-right="0.8"
     fit-margin-bottom="0.8"
     lock-margins="true" />
  <defs
     id="defs16">
    <style
       id="style2">.cls-1{fill:#fff;}.cls-2{fill:#004b7c;}.cls-3{fill:url(#linear-gradient);}.cls-4{fill:url(#linear-gradient-2);}.cls-5{fill:#0ca5c7;}</style>
    <linearGradient
       id="linear-gradient"
       x1="271.84"
       y1="461.23001"
       x2="361.48001"
       y2="550.87"
       gradientUnits="userSpaceOnUse">
      <stop
         offset="0"
         stop-color="#00a9c5"
         id="stop4" />
      <stop
         offset="0.18"
         stop-color="#00a0be"
         id="stop6" />
      <stop
         offset="0.47"
         stop-color="#0088ab"
         id="stop8" />
      <stop
         offset="0.83"
         stop-color="#00608d"
         id="stop10" />
      <stop
         offset="1"
         stop-color="#004b7c"
         id="stop12" />
    </linearGradient>
    <linearGradient
       id="linear-gradient-2"
       x1="272.04001"
       y1="461.94"
       x2="361.32001"
       y2="551.21997"
       xlink:href="#linear-gradient"
       gradientTransform="translate(-265.2,-454.36)" />
    <linearGradient
       inkscape:collect="always"
       xlink:href="#linear-gradient"
       id="linearGradient1083"
       gradientUnits="userSpaceOnUse"
       x1="271.84"
       y1="461.23001"
       x2="361.48001"
       y2="550.87"
       gradientTransform="translate(-265.2,-454.36)" />
  </defs>
  <path
     class="cls-2"
     d="m 130.98,94.34 c -7.58,0 -13.33,-1.71 -17.09,-5.07 -3.76,-3.36 -5.69,-8.59 -5.69,-15.47 V 2.07 h 18.6 V 75 a 2.74,2.74 0 0 0 2.74,2.73 H 158.3 A 2.73,2.73 0 0 0 161.03,75 V 2.07 h 18.58 V 73.8 c 0,6.88 -1.92,12.08 -5.7,15.47 -3.78,3.39 -9.51,5.07 -17.09,5.07 z"
     id="path20" />
  <path
     class="cls-2"
     d="m 195.24,77.03 h 41.28 a 2.55,2.55 0 0 0 2.56,-2.56 V 58.24 a 2.55,2.55 0 0 0 -2.56,-2.56 h -19.34 c -7.68,0 -13.62,-1.83 -17.65,-5.42 -4.03,-3.59 -6.12,-9 -6.12,-16 V 23.03 c 0,-6.87 2.08,-12.28 6.18,-16.09 3.89,-3.61 9.49,-5.44 16.65,-5.44 h 38.47 v 16.62 h -40.16 a 2.56,2.56 0 0 0 -2.56,2.56 v 15.79 a 2.56,2.56 0 0 0 2.55,2.56 h 19.21 c 7.68,0 13.64,1.85 17.72,5.49 4.08,3.64 6.19,9 6.19,15.89 v 11.81 c 0,7 -2.06,12.39 -6.11,16.1 -3.84,3.52 -9.41,5.3 -16.55,5.3 h -39.76 z"
     id="path22" />
  <path
     class="cls-2"
     d="m 293.86,94.34 c -7.59,0 -13.34,-1.71 -17.09,-5.07 -3.75,-3.36 -5.7,-8.59 -5.7,-15.47 V 21.35 c 0,-7 1.92,-12.21 5.7,-15.55 3.78,-3.34 9.5,-5 17.09,-5 h 31.73 c 7.59,0 13.36,1.68 17.16,5 3.8,3.32 5.77,8.57 5.77,15.55 V 73.8 c 0,6.88 -1.94,12.09 -5.77,15.47 -3.83,3.38 -9.57,5.07 -17.16,5.07 z m -1.48,-76.92 a 2.73,2.73 0 0 0 -2.73,2.73 V 75 a 2.73,2.73 0 0 0 2.73,2.73 h 34.83 A 2.74,2.74 0 0 0 329.95,75 V 20.15 a 2.74,2.74 0 0 0 -2.74,-2.73 z"
     id="path24" />
  <polygon
     class="cls-2"
     points="689.34,547.43 646.39,490.08 646.39,547.43 629.55,547.43 629.55,456.43 643.3,456.43 686.25,513.85 686.25,456.43 703.23,456.43 703.23,547.43 "
     id="polygon26"
     transform="translate(-265.2,-454.36)" />
  <rect
     class="cls-2"
     x="455.07007"
     y="2.0699928"
     width="18.299999"
     height="91"
     id="rect28" />
  <path
     class="cls-2"
     d="m 513.58,93.07 c -7.59,0 -13.34,-1.68 -17.09,-5 -3.75,-3.32 -5.69,-8.51 -5.69,-15.43 V 22.47 c 0,-6.88 1.92,-12.06 5.7,-15.4 3.78,-3.34 9.5,-5 17.09,-5 h 35.21 v 16.57 h -36.84 a 2.73,2.73 0 0 0 -2.73,2.73 v 52.32 a 2.74,2.74 0 0 0 2.73,2.74 h 36.84 v 16.6 z"
     id="path30" />
  <path
     class="cls-2"
     d="M 11.800002,148.83 V 117.71 H 0.80000229 v -5.24 H 28.800002 v 5.24 h -11 v 31.12 z"
     id="path32" />
  <path
     class="cls-2"
     d="m 49.800002,148.83 v -36.36 h 24.2 v 5.08 h -18.26 v 10.41 h 15.75 v 5.07 h -15.75 v 10.73 h 18.23 v 5.07 z"
     id="path34" />
  <path
     class="cls-2"
     d="m 110.28,149.25 a 35.51,35.51 0 0 1 -6.56,-0.5 10.49,10.49 0 0 1 -4.299998,-1.72 7.61,7.61 0 0 1 -2.54,-3.3 18.67,18.67 0 0 1 -1.19,-5.31 q -0.31,-3.22 -0.32,-7.77 -0.01,-4.55 0.32,-7.77 a 18.83,18.83 0 0 1 1.19,-5.31 7.61,7.61 0 0 1 2.54,-3.3 10.63,10.63 0 0 1 4.299998,-1.72 36.4,36.4 0 0 1 6.56,-0.5 c 1,0 2.07,0 3.14,0.11 1.07,0.11 2.11,0.17 3.09,0.29 a 20.45,20.45 0 0 1 2.54,0.45 v 4.74 l -2.62,-0.29 c -0.86,-0.08 -1.7,-0.15 -2.51,-0.18 -0.81,-0.03 -1.51,0 -2.11,0 a 45.24,45.24 0 0 0 -4.81,0.21 6.86,6.86 0 0 0 -3,0.95 4.34,4.34 0 0 0 -1.69,2.19 14.23,14.23 0 0 0 -0.74,3.94 q -0.18,2.47 -0.18,6.23 0,3.76 0.18,6.21 a 14.32,14.32 0 0 0 0.74,4 4.43,4.43 0 0 0 1.69,2.19 7,7 0 0 0 3,1 45.24,45.24 0 0 0 4.81,0.21 c 1.16,0 2.44,0 3.83,-0.16 1.39,-0.16 2.6,-0.23 3.62,-0.37 v 4.86 c -0.78,0.14 -1.68,0.27 -2.72,0.37 -1.04,0.1 -2.1,0.2 -3.17,0.27 -1.07,0.07 -2.11,-0.02 -3.09,-0.02 z"
     id="path36" />
  <path
     class="cls-2"
     d="m 141.67,148.83 v -36.36 h 6 v 15.43 h 16.8 v -15.43 h 6 v 36.36 h -6 v -15.69 h -16.8 v 15.69 z"
     id="path38" />
  <path
     class="cls-2"
     d="m 194.93,148.83 v -36.36 h 6.18 l 16.69,25.17 h 0.21 v -25.17 h 5.71 v 36.36 h -5.71 l -17.12,-26 h -0.21 v 26 z"
     id="path40" />
  <path
     class="cls-2"
     d="m 262.09,149.25 a 41.11,41.11 0 0 1 -7.13,-0.5 10.42,10.42 0 0 1 -4.44,-1.72 6.89,6.89 0 0 1 -2.38,-3.33 20.34,20.34 0 0 1 -1,-5.31 q -0.21,-3.19 -0.21,-7.74 0,-4.55 0.21,-7.74 a 20.5,20.5 0 0 1 1,-5.31 6.89,6.89 0 0 1 2.38,-3.33 10.55,10.55 0 0 1 4.44,-1.72 42.13,42.13 0 0 1 7.13,-0.5 42.6,42.6 0 0 1 7.16,0.5 10.59,10.59 0 0 1 4.47,1.72 7,7 0 0 1 2.4,3.33 19.59,19.59 0 0 1 1,5.31 q 0.21,3.19 0.21,7.74 0,4.55 -0.21,7.74 a 19.44,19.44 0 0 1 -1,5.31 7,7 0 0 1 -2.4,3.33 10.46,10.46 0 0 1 -4.47,1.72 41.57,41.57 0 0 1 -7.16,0.5 z m 0,-5.07 c 1.76,0 3.22,0 4.36,-0.16 a 6,6 0 0 0 2.7,-0.79 3.78,3.78 0 0 0 1.45,-2.09 15.85,15.85 0 0 0 0.61,-4 q 0.14,-2.5 0.13,-6.53 c 0,-2.67 0,-4.85 -0.13,-6.52 a 15.86,15.86 0 0 0 -0.61,-4 3.79,3.79 0 0 0 -1.45,-2.08 6,6 0 0 0 -2.7,-0.8 c -1.14,-0.1 -2.6,-0.15 -4.36,-0.15 -1.76,0 -3.15,0 -4.28,0.15 a 6,6 0 0 0 -2.69,0.8 3.61,3.61 0 0 0 -1.46,2.08 17.07,17.07 0 0 0 -0.58,4 c -0.09,1.67 -0.13,3.85 -0.13,6.52 0,2.67 0,4.86 0.13,6.53 a 17.06,17.06 0 0 0 0.58,4 3.6,3.6 0 0 0 1.46,2.09 6,6 0 0 0 2.69,0.79 c 1.13,0.11 2.56,0.16 4.28,0.16 z"
     id="path42" />
  <path
     class="cls-2"
     d="m 300.61,148.83 v -36.36 h 6 v 31.17 h 16.09 v 5.23 z"
     id="path44" />
  <path
     class="cls-2"
     d="m 357.8,149.25 a 41,41 0 0 1 -7.13,-0.5 10.42,10.42 0 0 1 -4.44,-1.72 6.76,6.76 0 0 1 -2.38,-3.33 20.34,20.34 0 0 1 -0.95,-5.31 q -0.21,-3.19 -0.21,-7.74 0,-4.55 0.21,-7.74 a 20.5,20.5 0 0 1 0.9,-5.27 6.76,6.76 0 0 1 2.38,-3.33 10.55,10.55 0 0 1 4.44,-1.72 42,42 0 0 1 7.13,-0.5 42.68,42.68 0 0 1 7.16,0.5 10.59,10.59 0 0 1 4.46,1.72 6.94,6.94 0 0 1 2.43,3.33 20,20 0 0 1 1,5.31 q 0.21,3.19 0.21,7.74 0,4.55 -0.21,7.74 a 19.83,19.83 0 0 1 -1,5.31 6.94,6.94 0 0 1 -2.41,3.33 10.46,10.46 0 0 1 -4.46,1.72 41.65,41.65 0 0 1 -7.13,0.46 z m 0,-5.07 c 1.76,0 3.21,0 4.36,-0.16 a 5.91,5.91 0 0 0 2.69,-0.79 3.79,3.79 0 0 0 1.46,-2.09 15.91,15.91 0 0 0 0.6,-4 q 0.14,-2.5 0.14,-6.53 c 0,-2.67 0,-4.85 -0.14,-6.52 a 15.93,15.93 0 0 0 -0.6,-4 3.8,3.8 0 0 0 -1.46,-2.08 5.91,5.91 0 0 0 -2.69,-0.8 c -1.15,-0.1 -2.6,-0.15 -4.36,-0.15 -1.76,0 -3.15,0 -4.28,0.15 a 6.07,6.07 0 0 0 -2.7,0.8 3.6,3.6 0 0 0 -1.45,2.08 17.07,17.07 0 0 0 -0.58,4 c -0.09,1.67 -0.13,3.85 -0.13,6.52 0,2.67 0,4.86 0.13,6.53 a 17.06,17.06 0 0 0 0.58,4 3.59,3.59 0 0 0 1.45,2.09 6.08,6.08 0 0 0 2.7,0.79 c 1.12,0.11 2.54,0.16 4.28,0.16 z"
     id="path46" />
  <path
     class="cls-2"
     d="m 410.8,149.25 a 36.71,36.71 0 0 1 -6.63,-0.5 11.73,11.73 0 0 1 -4.52,-1.72 7.9,7.9 0 0 1 -2.77,-3.33 17.78,17.78 0 0 1 -1.38,-5.31 75.08,75.08 0 0 1 0,-15.48 17.62,17.62 0 0 1 1.4,-5.31 8.11,8.11 0 0 1 2.8,-3.33 12,12 0 0 1 4.52,-1.72 37.36,37.36 0 0 1 6.58,-0.5 c 1.16,0 2.44,0.05 3.83,0.16 1.39,0.11 2.77,0.24 4.15,0.4 1.38,0.16 2.62,0.34 3.75,0.55 v 4.76 c -1.2,-0.18 -2.38,-0.32 -3.54,-0.43 l -3.2,-0.26 c -1,-0.07 -1.77,-0.1 -2.4,-0.1 -2.12,0 -3.89,0 -5.34,0.13 a 9.9,9.9 0 0 0 -3.54,0.76 4.41,4.41 0 0 0 -2.11,2.09 11.73,11.73 0 0 0 -1,4 58.25,58.25 0 0 0 -0.29,6.55 q 0,3.54 0.18,6 a 14.1,14.1 0 0 0 0.79,4 5.11,5.11 0 0 0 1.7,2.35 6.75,6.75 0 0 0 2.85,1.11 25.35,25.35 0 0 0 4.36,0.32 c 0.67,0 1.38,0 2.14,-0.05 0.76,-0.05 1.47,-0.08 2.14,-0.14 0.67,-0.06 1.23,-0.11 1.69,-0.18 v -10.43 h -7.16 v -5 h 12.89 v 19.5 c -1.2,0.21 -2.51,0.4 -3.94,0.56 -1.43,0.16 -2.83,0.29 -4.2,0.39 -1.37,0.1 -2.63,0.16 -3.75,0.16 z"
     id="path48" />
  <path
     class="cls-2"
     d="m 446.62,148.83 v -36.36 h 6 v 36.36 z"
     id="path50" />
  <path
     class="cls-2"
     d="m 477.05,148.83 v -36.36 h 24.2 v 5.08 h -18.23 v 10.41 h 15.78 v 5.07 h -15.78 v 10.73 h 18.23 v 5.07 z"
     id="path52" />
  <path
     class="cls-2"
     d="m 536.24,149.25 c -1.31,0 -2.74,0 -4.31,-0.1 -1.57,-0.1 -3.1,-0.17 -4.6,-0.29 -1.5,-0.12 -2.86,-0.26 -4.09,-0.4 v -4.91 l 4,0.31 q 2.09,0.16 4,0.24 c 1.26,0 2.36,0.08 3.27,0.08 a 29.12,29.12 0 0 0 4.39,-0.26 7.19,7.19 0 0 0 2.54,-0.85 2.46,2.46 0 0 0 0.92,-1.06 4.58,4.58 0 0 0 0.37,-1.5 c 0.05,-0.58 0.08,-1.23 0.08,-1.93 a 22.27,22.27 0 0 0 -0.11,-2.38 3.27,3.27 0 0 0 -0.47,-1.48 2.08,2.08 0 0 0 -1.17,-0.76 11.92,11.92 0 0 0 -2.06,-0.4 l -8.66,-1 a 14,14 0 0 1 -4.15,-1.09 6.08,6.08 0 0 1 -2.48,-2 7.69,7.69 0 0 1 -1.19,-3 21.63,21.63 0 0 1 -0.32,-3.85 13.64,13.64 0 0 1 1,-5.6 7,7 0 0 1 2.72,-3.15 10.93,10.93 0 0 1 4.2,-1.43 40.2,40.2 0 0 1 5.39,-0.34 c 1.38,0 2.79,0.05 4.23,0.13 1.44,0.08 2.81,0.2 4.1,0.32 a 22,22 0 0 1 3.19,0.5 v 4.81 c -0.88,-0.14 -1.91,-0.26 -3.09,-0.37 -1.18,-0.11 -2.4,-0.18 -3.67,-0.24 -1.27,-0.06 -2.45,-0.07 -3.54,-0.07 a 32.51,32.51 0 0 0 -4.41,0.23 7.26,7.26 0 0 0 -2.57,0.77 2.34,2.34 0 0 0 -1.26,1.61 15.61,15.61 0 0 0 0,5.34 1.83,1.83 0 0 0 1.11,1.34 10.12,10.12 0 0 0 2.67,0.59 l 8.67,1 a 19.8,19.8 0 0 1 3,0.5 6.51,6.51 0 0 1 2.26,1.08 5.27,5.27 0 0 1 1.61,2.27 6.71,6.71 0 0 1 0.55,1.69 c 0.13,0.64 0.23,1.33 0.32,2.09 a 22,22 0 0 1 0.13,2.56 17.81,17.81 0 0 1 -0.6,5 8.16,8.16 0 0 1 -1.7,3.2 7,7 0 0 1 -2.66,1.8 13.83,13.83 0 0 1 -3.49,0.79 c -1.27,0.15 -2.64,0.21 -4.12,0.21 z"
     id="path54" />
  <path
     class="cls-3"
     d="m 54.080002,41.07 h -12.07 a 2,2 0 0 0 -2,2 v 10.36 a 0.43,0.43 0 0 0 0.13,0.3 l 21.94,21.93 18.64,18.64 h 12.88 v -14 l -39.2,-39.1 a 0.46,0.46 0 0 0 -0.32,-0.13 z"
     id="path56"
     style="fill:url(#linearGradient1083)" />
  <path
     class="cls-4"
     d="m 93.560002,34.15 a 13.88,13.88 0 0 0 -4.07,-9.82 l -17.89,-17.9 a 16.76,16.76 0 0 0 -11.93,-4.93 l -41.64,0.05 A 17.26,17.26 0 0 0 0.80000229,18.81 V 60.46 A 16.83,16.83 0 0 0 5.7300023,72.37 l 17.8999997,17.9 a 13.88,13.88 0 0 0 9.82,4.07 h 30.82 l -18.64,-18.64 h -10.52 a 5.16,5.16 0 0 1 -3.63,-1.5 l -9.79,-9.8 a 7.62,7.62 0 0 1 -2.26,-5.44 V 24.74 a 4.21,4.21 0 0 1 4.21,-4.21 h 36 a 7.71,7.71 0 0 1 5.44,2.26 l 8.38,8.38 a 5.14,5.14 0 0 1 1.5,3.63 v 10.5 l 18.65,18.65 z"
     id="path58"
     style="fill:url(#linear-gradient-2)" />
</svg>
